<svg width="56" height="56" viewBox="0 0 56 56" fill="none" xmlns="http://www.w3.org/2000/svg">
<rect width="56" height="56" rx="8" fill="#111111"/>
<rect x="0.5" y="0.5" width="55" height="55" rx="7.5" stroke="white" stroke-opacity="0.1"/>
<path fill-rule="evenodd" clip-rule="evenodd" d="M20 29.3333C19.2667 29.3333 18.6667 29.9333 18.6667 30.6667C18.6667 31.4 19.2667 32 20 32C20.7333 32 21.3333 31.4 21.3333 30.6667C21.3333 29.9333 20.7333 29.3333 20 29.3333ZM20 34.6667C19.2667 34.6667 18.6667 35.2667 18.6667 36C18.6667 36.7333 19.2667 37.3333 20 37.3333C20.7333 37.3333 21.3333 36.7333 21.3333 36C21.3333 35.2667 20.7333 34.6667 20 34.6667ZM20 24C19.2667 24 18.6667 24.6 18.6667 25.3333C18.6667 26.0667 19.2667 26.6667 20 26.6667C20.7333 26.6667 21.3333 26.0667 21.3333 25.3333C21.3333 24.6 20.7333 24 20 24ZM16 24.6667C15.6267 24.6667 15.3333 24.96 15.3333 25.3333C15.3333 25.7067 15.6267 26 16 26C16.3733 26 16.6667 25.7067 16.6667 25.3333C16.6667 24.96 16.3733 24.6667 16 24.6667ZM20 18.6667C19.2667 18.6667 18.6667 19.2667 18.6667 20C18.6667 20.7333 19.2667 21.3333 20 21.3333C20.7333 21.3333 21.3333 20.7333 21.3333 20C21.3333 19.2667 20.7333 18.6667 20 18.6667ZM40 26C40.3733 26 40.6667 25.7067 40.6667 25.3333C40.6667 24.96 40.3733 24.6667 40 24.6667C39.6267 24.6667 39.3333 24.96 39.3333 25.3333C39.3333 25.7067 39.6267 26 40 26ZM30.6667 21.3333C31.4 21.3333 32 20.7333 32 20C32 19.2667 31.4 18.6667 30.6667 18.6667C29.9333 18.6667 29.3333 19.2667 29.3333 20C29.3333 20.7333 29.9333 21.3333 30.6667 21.3333ZM30.6667 16.6667C31.04 16.6667 31.3333 16.3733 31.3333 16C31.3333 15.6267 31.04 15.3333 30.6667 15.3333C30.2933 15.3333 30 15.6267 30 16C30 16.3733 30.2933 16.6667 30.6667 16.6667ZM16 30C15.6267 30 15.3333 30.2933 15.3333 30.6667C15.3333 31.04 15.6267 31.3333 16 31.3333C16.3733 31.3333 16.6667 31.04 16.6667 30.6667C16.6667 30.2933 16.3733 30 16 30ZM25.3333 39.3333C24.96 39.3333 24.6667 39.6267 24.6667 40C24.6667 40.3733 24.96 40.6667 25.3333 40.6667C25.7067 40.6667 26 40.3733 26 40C26 39.6267 25.7067 39.3333 25.3333 39.3333ZM25.3333 16.6667C25.7067 16.6667 26 16.3733 26 16C26 15.6267 25.7067 15.3333 25.3333 15.3333C24.96 15.3333 24.6667 15.6267 24.6667 16C24.6667 16.3733 24.96 16.6667 25.3333 16.6667ZM25.3333 21.3333C26.0667 21.3333 26.6667 20.7333 26.6667 20C26.6667 19.2667 26.0667 18.6667 25.3333 18.6667C24.6 18.6667 24 19.2667 24 20C24 20.7333 24.6 21.3333 25.3333 21.3333ZM25.3333 28.6667C24.2267 28.6667 23.3333 29.56 23.3333 30.6667C23.3333 31.7733 24.2267 32.6667 25.3333 32.6667C26.44 32.6667 27.3333 31.7733 27.3333 30.6667C27.3333 29.56 26.44 28.6667 25.3333 28.6667ZM36 29.3333C35.2667 29.3333 34.6667 29.9333 34.6667 30.6667C34.6667 31.4 35.2667 32 36 32C36.7333 32 37.3333 31.4 37.3333 30.6667C37.3333 29.9333 36.7333 29.3333 36 29.3333ZM36 34.6667C35.2667 34.6667 34.6667 35.2667 34.6667 36C34.6667 36.7333 35.2667 37.3333 36 37.3333C36.7333 37.3333 37.3333 36.7333 37.3333 36C37.3333 35.2667 36.7333 34.6667 36 34.6667ZM36 24C35.2667 24 34.6667 24.6 34.6667 25.3333C34.6667 26.0667 35.2667 26.6667 36 26.6667C36.7333 26.6667 37.3333 26.0667 37.3333 25.3333C37.3333 24.6 36.7333 24 36 24ZM36 18.6667C35.2667 18.6667 34.6667 19.2667 34.6667 20C34.6667 20.7333 35.2667 21.3333 36 21.3333C36.7333 21.3333 37.3333 20.7333 37.3333 20C37.3333 19.2667 36.7333 18.6667 36 18.6667ZM40 30C39.6267 30 39.3333 30.2933 39.3333 30.6667C39.3333 31.04 39.6267 31.3333 40 31.3333C40.3733 31.3333 40.6667 31.04 40.6667 30.6667C40.6667 30.2933 40.3733 30 40 30ZM30.6667 34.6667C29.9333 34.6667 29.3333 35.2667 29.3333 36C29.3333 36.7333 29.9333 37.3333 30.6667 37.3333C31.4 37.3333 32 36.7333 32 36C32 35.2667 31.4 34.6667 30.6667 34.6667ZM30.6667 39.3333C30.2933 39.3333 30 39.6267 30 40C30 40.3733 30.2933 40.6667 30.6667 40.6667C31.04 40.6667 31.3333 40.3733 31.3333 40C31.3333 39.6267 31.04 39.3333 30.6667 39.3333ZM25.3333 23.3333C24.2267 23.3333 23.3333 24.2267 23.3333 25.3333C23.3333 26.44 24.2267 27.3333 25.3333 27.3333C26.44 27.3333 27.3333 26.44 27.3333 25.3333C27.3333 24.2267 26.44 23.3333 25.3333 23.3333ZM25.3333 34.6667C24.6 34.6667 24 35.2667 24 36C24 36.7333 24.6 37.3333 25.3333 37.3333C26.0667 37.3333 26.6667 36.7333 26.6667 36C26.6667 35.2667 26.0667 34.6667 25.3333 34.6667ZM30.6667 28.6667C29.56 28.6667 28.6667 29.56 28.6667 30.6667C28.6667 31.7733 29.56 32.6667 30.6667 32.6667C31.7733 32.6667 32.6667 31.7733 32.6667 30.6667C32.6667 29.56 31.7733 28.6667 30.6667 28.6667ZM30.6667 23.3333C29.56 23.3333 28.6667 24.2267 28.6667 25.3333C28.6667 26.44 29.56 27.3333 30.6667 27.3333C31.7733 27.3333 32.6667 26.44 32.6667 25.3333C32.6667 24.2267 31.7733 23.3333 30.6667 23.3333Z" fill="white" fill-opacity="0.4"/>
</svg>
