<svg xmlns="http://www.w3.org/2000/svg" width="82.024" height="82.024" viewBox="0 0 82.024 82.024">
  <g id="Group_438" data-name="Group 438" transform="translate(1815.143 -328.805) rotate(135)">
    <circle id="Ellipse_228" data-name="Ellipse 228" cx="29" cy="29" r="29" transform="translate(1487 964)" fill="#ff4343"/>
    <g id="Group_437" data-name="Group 437" transform="translate(1502 979)">
      <path id="Path_468" data-name="Path 468" d="M0,0H28V28H0Z" fill="none"/>
      <path id="Path_469" data-name="Path 469" d="M25,19.4v4.322a1.222,1.222,0,0,1-1.137,1.22c-.534.037-.97.056-1.308.056A19.555,19.555,0,0,1,3,5.444q0-.506.056-1.308A1.222,1.222,0,0,1,4.276,3H8.6a.611.611,0,0,1,.609.55c.028.281.054.5.078.675a16.99,16.99,0,0,0,1.476,4.89.557.557,0,0,1-.18.693L7.944,11.692a15.946,15.946,0,0,0,8.365,8.365l1.882-2.633a.565.565,0,0,1,.7-.182,16.99,16.99,0,0,0,4.889,1.473c.17.024.394.051.672.078A.611.611,0,0,1,25,19.4Z" transform="translate(0 0)" fill="#fff"/>
    </g>
  </g>
</svg>
