<svg width="18" height="23" xmlns="http://www.w3.org/2000/svg" xmlns:xlink="http://www.w3.org/1999/xlink" xmlns:svgjs="http://svgjs.com/svgjs" fill="#8f9fb4"><svg xmlns="http://www.w3.org/2000/svg" width="18" height="23" viewBox="-0.001 0 18 23"><path paint-order="stroke fill markers" fill-rule="evenodd" d="M18 23h-2.25v-2.19c0-1.815-1.511-3.286-3.375-3.286h-6.75c-1.865 0-3.375 1.47-3.375 3.285V23H0v-2.19c0-3.025 2.518-5.477 5.625-5.477h6.75c3.106 0 5.625 2.452 5.625 5.476V23zm-9-9.857c-3.729 0-6.75-2.942-6.75-6.572C2.25 2.942 5.27 0 9 0c3.728 0 6.75 2.942 6.75 6.571 0 3.63-3.022 6.572-6.75 6.572zm0-2.19c2.485 0 4.5-1.962 4.5-4.382s-2.015-4.38-4.5-4.38c-2.486 0-4.5 1.96-4.5 4.38s2.014 4.381 4.5 4.381z"/></svg></svg>