<svg width="22" height="25" xmlns="http://www.w3.org/2000/svg" xmlns:xlink="http://www.w3.org/1999/xlink" xmlns:svgjs="http://svgjs.com/svgjs" viewBox="0 0.921 22 23.158" fill="#8f9fb4"><svg xmlns="http://www.w3.org/2000/svg" width="22" height="25" viewBox="0 1 21.999 23.158"><path paint-order="stroke fill markers" fill-rule="evenodd" d="M9.262 1l8.45 2.64c.485.15.814.599.814 1.106v2.043h2.316c.639 0 1.157.519 1.157 1.158v9.263c0 .64-.518 1.158-1.157 1.158l-3.73.001a6.914 6.914 0 0 1-1.62 1.54l-6.23 4.249-6.23-4.247A6.948 6.948 0 0 1 0 14.17V4.746c0-.507.329-.954.812-1.105L9.262 1zm0 2.425L2.316 5.597v8.573c0 1.438.666 2.793 1.805 3.67l.217.157 4.924 3.359 4.38-2.988H8.105c-.64 0-1.158-.518-1.158-1.158V7.947c0-.64.519-1.158 1.158-1.158h8.105V5.597L9.262 3.425zm0 9.154v3.474h10.421v-3.474H9.263zm0-2.316h10.421V9.105H9.263v1.158z"/></svg></svg>