<svg width="57" height="56" xmlns="http://www.w3.org/2000/svg" xmlns:xlink="http://www.w3.org/1999/xlink" xmlns:svgjs="http://svgjs.com/svgjs" viewBox="0 0.155 57 55.691" fill="#3c4253"><svg xmlns="http://www.w3.org/2000/svg" width="57" height="56" viewBox="-0.001 0 56.819 55.514"><path paint-order="stroke fill markers" fill-rule="evenodd" d="M56.435 3.489a2.855 2.855 0 0 0-1.746-1.343L47.279.163a4.801 4.801 0 0 0-5.872 3.39l-.994 3.705-19.45-5.213a.96.96 0 0 0-1.175.679l-3.724 13.894-4.63-1.24a.958.958 0 0 0-1.175.678L4.55 37.359l-.926-.248a2.88 2.88 0 0 0-1.49 5.562l22.777 6.099a7.67 7.67 0 0 0 14.71 1.983 7.67 7.67 0 0 0-2.483-9.043l9.574-35.743 6.484 1.736a2.876 2.876 0 0 0 3.235-4.22l.004.004zM11.867 17.476l8.336 2.233-2.234 8.337a.96.96 0 0 0 1.233 1.157l2.67-.904 1.861 2.118a.957.957 0 0 0 1.646-.384l2.234-8.336 8.337 2.233-4.37 16.294a7.71 7.71 0 0 0-5.178 2.99L6.403 37.86l5.464-20.383zm9.53-13.33l6.483 1.738-1.738 6.484a.959.959 0 0 0 1.406 1.08l1.518-.878.877 1.519a.96.96 0 0 0 1.757-.232l1.736-6.484 6.485 1.738-3.48 12.967-18.525-4.964 3.48-12.967zm8.33 2.234l1.854.497-1.138 4.247-.199-.344a.96.96 0 0 0-1.31-.35l-.344.198 1.138-4.248zM25.758 21.2l-1.771 6.605-1.101-1.246a.956.956 0 0 0-1.027-.275l-1.579.534 1.771-6.607 3.706.99zM1.952 39.641a.957.957 0 0 1 1.176-.677l22.295 5.974c-.124.296-.229.6-.314.909-.08.31-.141.625-.183.943L2.632 40.816a.958.958 0 0 1-.679-1.175zm36.129 9.68a5.755 5.755 0 1 1-4.073-7.051 5.76 5.76 0 0 1 4.073 7.051zM54.87 5.174a.959.959 0 0 1-1.174.68l-6.484-1.738a1.919 1.919 0 0 0-2.35 1.356l-9.448 35.264a6.862 6.862 0 0 0-1.853-.497l9.699-36.19a2.877 2.877 0 0 1 3.524-2.034L54.192 4c.51.137.814.662.677 1.173h.001z"/></svg></svg>