<svg width="25" height="25" xmlns="http://www.w3.org/2000/svg" xmlns:xlink="http://www.w3.org/1999/xlink" xmlns:svgjs="http://svgjs.com/svgjs" viewBox="0 0.287 25 24.426" fill="#8f9fb4" stroke-miterlimit="100" stroke="#8f9fb4" stroke-width=".1"><svg xmlns="http://www.w3.org/2000/svg" width="25" height="25" viewBox="0.211 0.904 24.253 23.696"><path paint-order="stroke fill markers" fill-rule="evenodd" d="M24.3 2.393a1.221 1.221 0 0 0-.745-.573L20.393.974a2.05 2.05 0 0 0-2.508 1.447l-.423 1.581L9.16 1.777a.41.41 0 0 0-.5.29l-1.59 5.93-1.977-.529a.41.41 0 0 0-.501.29L2.154 16.85l-.396-.106a1.23 1.23 0 0 0-.635 2.374l9.722 2.603a3.274 3.274 0 1 0 5.22-3.013L20.15 3.452l2.768.741a1.229 1.229 0 0 0 1.38-1.801l.003.001zM5.278 8.363l3.558.954-.954 3.559a.41.41 0 0 0 .527.493l1.14-.385.793.903a.41.41 0 0 0 .703-.163l.954-3.559 3.559.954-1.865 6.955a3.294 3.294 0 0 0-2.211 1.276l-8.536-2.286 2.332-8.7zm4.067-5.689l2.768.742-.742 2.768a.407.407 0 0 0 .6.46l.649-.375.374.649a.41.41 0 0 0 .75-.1l.74-2.767 2.769.742-1.486 5.535L7.86 8.209l1.485-5.535zm3.557.953l.79.212-.486 1.813-.084-.146a.41.41 0 0 0-.559-.15l-.147.085.486-1.814zm-1.695 6.327l-.757 2.82-.469-.533a.41.41 0 0 0-.438-.117l-.674.228.755-2.82 1.583.422zM1.045 17.825a.409.409 0 0 1 .502-.29l9.517 2.55a3.314 3.314 0 0 0-.135.389c-.034.132-.06.267-.078.403l-9.517-2.55a.41.41 0 0 1-.29-.502s0 0 0 0zm15.421 4.132a2.455 2.455 0 1 1-4.743-1.273 2.455 2.455 0 0 1 4.743 1.273zm7.167-18.844a.41.41 0 0 1-.501.29l-2.768-.742a.819.819 0 0 0-1.003.579l-4.033 15.052a2.926 2.926 0 0 0-.791-.212l4.14-15.447a1.227 1.227 0 0 1 1.504-.869l3.162.848a.41.41 0 0 1 .29.5s0 0 0 0z"/></svg></svg>