<svg width="21" height="21" xmlns="http://www.w3.org/2000/svg" xmlns:xlink="http://www.w3.org/1999/xlink" xmlns:svgjs="http://svgjs.com/svgjs" viewBox="0.5 0 20.001 21" fill="#8f9fb4"><svg xmlns="http://www.w3.org/2000/svg" width="21" height="21" viewBox="-0.001 0.001 20 20.999"><path paint-order="stroke fill markers" fill-rule="evenodd" d="M2 5.143v12.824l5.064-2.17 6 3L18 16.68V3.857l1.302-.558a.5.5 0 0 1 .697.46V18l-7 3-6-3-6.303 2.701a.5.5 0 0 1-.697-.46V6l2-.857zm12.242 5.1l-4.243 4.242-4.243-4.242a6 6 0 1 1 8.486 0zm-4.243 1.414l2.828-2.829a4 4 0 1 0-5.656 0L10 11.657z"/></svg></svg>