<svg id="Group_458" data-name="Group 458" xmlns="http://www.w3.org/2000/svg" width="20" height="20" viewBox="0 0 20 20">
  <path id="Path_473" data-name="Path 473" d="M0,0H20V20H0Z" fill="none"/>
  <path id="Path_474" data-name="Path 474" d="M10,2.636A2.394,2.394,0,0,0,7.671,5.091V8.364A2.394,2.394,0,0,0,10,10.818a2.394,2.394,0,0,0,2.329-2.455V5.091A2.394,2.394,0,0,0,10,2.636ZM10,1a3.991,3.991,0,0,1,3.882,4.091V8.364A3.991,3.991,0,0,1,10,12.455,3.991,3.991,0,0,1,6.118,8.364V5.091A3.991,3.991,0,0,1,10,1ZM3.055,9.182H4.619a5.536,5.536,0,0,0,5.38,4.9,5.536,5.536,0,0,0,5.38-4.9h1.565a7.187,7.187,0,0,1-6.168,6.5V19H9.223V15.682a7.187,7.187,0,0,1-6.168-6.5Z" fill="#949090"/>
</svg>
