<svg width="20" height="20" xmlns="http://www.w3.org/2000/svg" xmlns:xlink="http://www.w3.org/1999/xlink" xmlns:svgjs="http://svgjs.com/svgjs" viewBox="0.002 0 19.996 20" fill="#272d3b"><svg xmlns="http://www.w3.org/2000/svg" width="20" height="20" viewBox="0.842 0.438 19.12 19.124"><path paint-order="stroke fill markers" fill-rule="evenodd" d="M19.797 18.586l-4.648-4.647a8.119 8.119 0 0 0 2.001-5.347c0-4.499-3.659-8.154-8.154-8.154C4.498.438.842 4.098.842 8.592c0 4.495 3.66 8.154 8.154 8.154a8.124 8.124 0 0 0 5.348-2.001l4.647 4.647c.11.11.258.17.403.17a.574.574 0 0 0 .403-.975zM1.983 8.592a7.017 7.017 0 0 1 7.009-7.01 7.017 7.017 0 0 1 7.01 7.01c0 3.863-3.142 7.014-7.01 7.014-3.862 0-7.009-3.147-7.009-7.014z"/></svg></svg>