<svg width="20" height="20" viewBox="0 0 20 20" fill="none" xmlns="http://www.w3.org/2000/svg">
<path fill-rule="evenodd" clip-rule="evenodd" d="M16.1917 10.8167C16.225 10.55 16.25 10.2833 16.25 10C16.25 9.71667 16.225 9.45001 16.1917 9.18334L17.95 7.80834C18.1083 7.68334 18.15 7.45834 18.05 7.27501L16.3833 4.39167C16.2833 4.20834 16.0583 4.14167 15.875 4.20834L13.8 5.04167C13.3667 4.70834 12.9 4.43334 12.3917 4.22501L12.075 2.01667C12.05 1.81667 11.875 1.66667 11.6667 1.66667H8.33332C8.12499 1.66667 7.94999 1.81667 7.92499 2.01667L7.60832 4.22501C7.09999 4.43334 6.63332 4.71667 6.19999 5.04167L4.12499 4.20834C3.93332 4.13334 3.71665 4.20834 3.61665 4.39167L1.94999 7.27501C1.84165 7.45834 1.89165 7.68334 2.04999 7.80834L3.80832 9.18334C3.77499 9.45001 3.74999 9.72501 3.74999 10C3.74999 10.275 3.77499 10.55 3.80832 10.8167L2.04999 12.1917C1.89165 12.3167 1.84999 12.5417 1.94999 12.725L3.61665 15.6083C3.71665 15.7917 3.94165 15.8583 4.12499 15.7917L6.19999 14.9583C6.63332 15.2917 7.09999 15.5667 7.60832 15.775L7.92499 17.9833C7.94999 18.1833 8.12499 18.3333 8.33332 18.3333H11.6667C11.875 18.3333 12.05 18.1833 12.075 17.9833L12.3917 15.775C12.9 15.5667 13.3667 15.2833 13.8 14.9583L15.875 15.7917C16.0667 15.8667 16.2833 15.7917 16.3833 15.6083L18.05 12.725C18.15 12.5417 18.1083 12.3167 17.95 12.1917L16.1917 10.8167ZM9.99999 12.9167C8.39166 12.9167 7.08332 11.6083 7.08332 10C7.08332 8.39167 8.39166 7.08334 9.99999 7.08334C11.6083 7.08334 12.9167 8.39167 12.9167 10C12.9167 11.6083 11.6083 12.9167 9.99999 12.9167Z" fill="white" fill-opacity="0.4"/>
</svg>
