<svg width="62" height="46" xmlns="http://www.w3.org/2000/svg" xmlns:xlink="http://www.w3.org/1999/xlink" xmlns:svgjs="http://svgjs.com/svgjs" viewBox="786 223 62 46"><svg width="62" height="45" xmlns="http://www.w3.org/2000/svg" xmlns:xlink="http://www.w3.org/1999/xlink" xmlns:svgjs="http://svgjs.com/svgjs" viewBox="786 223 62 45" x="786" y="223"><svg width="13" height="14" xmlns="http://www.w3.org/2000/svg" xmlns:xlink="http://www.w3.org/1999/xlink" xmlns:svgjs="http://svgjs.com/svgjs" viewBox="794 254 13 14" x="794" y="254"><svg width="13" height="14" xmlns="http://www.w3.org/2000/svg" xmlns:xlink="http://www.w3.org/1999/xlink" xmlns:svgjs="http://svgjs.com/svgjs" viewBox="794 254 13 14" x="794" y="254"><svg width="13" height="14" xmlns="http://www.w3.org/2000/svg" xmlns:xlink="http://www.w3.org/1999/xlink" xmlns:svgjs="http://svgjs.com/svgjs" viewBox="0 0.5 13 13" fill="#333" x="794" y="254"><svg xmlns="http://www.w3.org/2000/svg" xmlns:xlink="http://www.w3.org/1999/xlink" width="13" height="14" viewBox="0.226 0.877 12.339 12.339"><path paint-order="stroke fill markers" fill-rule="evenodd" d="M6.395.877a6.176 6.176 0 0 0-6.17 6.17 6.176 6.176 0 0 0 6.17 6.169 6.176 6.176 0 0 0 6.17-6.17 6.176 6.176 0 0 0-6.17-6.17zm0 10.282a4.117 4.117 0 0 1-4.112-4.113 4.117 4.117 0 0 1 4.112-4.113 4.117 4.117 0 0 1 4.114 4.113 4.117 4.117 0 0 1-4.114 4.113z"/></svg></svg></svg></svg><svg width="13" height="14" xmlns="http://www.w3.org/2000/svg" xmlns:xlink="http://www.w3.org/1999/xlink" xmlns:svgjs="http://svgjs.com/svgjs" viewBox="829 254 13 14" x="829" y="254"><svg width="13" height="14" xmlns="http://www.w3.org/2000/svg" xmlns:xlink="http://www.w3.org/1999/xlink" xmlns:svgjs="http://svgjs.com/svgjs" viewBox="829 254 13 14" x="829" y="254"><svg width="13" height="14" xmlns="http://www.w3.org/2000/svg" xmlns:xlink="http://www.w3.org/1999/xlink" xmlns:svgjs="http://svgjs.com/svgjs" viewBox="0 0.5 13 13" fill="#333" x="829" y="254"><svg xmlns="http://www.w3.org/2000/svg" xmlns:xlink="http://www.w3.org/1999/xlink" width="13" height="14" viewBox="0.187 0.877 12.339 12.339"><path paint-order="stroke fill markers" fill-rule="evenodd" d="M6.357.877a6.176 6.176 0 0 0-6.17 6.17 6.176 6.176 0 0 0 6.17 6.169 6.176 6.176 0 0 0 6.17-6.17 6.176 6.176 0 0 0-6.17-6.17zm0 10.282a4.117 4.117 0 0 1-4.113-4.113 4.117 4.117 0 0 1 4.113-4.113 4.118 4.118 0 0 1 4.114 4.113 4.118 4.118 0 0 1-4.114 4.113z"/></svg></svg></svg></svg><svg width="23" height="29" xmlns="http://www.w3.org/2000/svg" xmlns:xlink="http://www.w3.org/1999/xlink" xmlns:svgjs="http://svgjs.com/svgjs" viewBox="825 234 23 29" x="825" y="234"><svg width="23" height="29" xmlns="http://www.w3.org/2000/svg" xmlns:xlink="http://www.w3.org/1999/xlink" xmlns:svgjs="http://svgjs.com/svgjs" viewBox="825 234 23 29" x="825" y="234"><svg width="23" height="29" xmlns="http://www.w3.org/2000/svg" xmlns:xlink="http://www.w3.org/1999/xlink" xmlns:svgjs="http://svgjs.com/svgjs" viewBox="0 0.387 23 28.227" fill="#333" x="825" y="234"><svg xmlns="http://www.w3.org/2000/svg" xmlns:xlink="http://www.w3.org/1999/xlink" width="23" height="29" viewBox="0.074 0.311 22.622 27.763"><path paint-order="stroke fill markers" fill-rule="evenodd" d="M22.533 15.179L13.278.783a1.028 1.028 0 0 0-.865-.472H1.103C.532.311.073.771.073 1.34v25.707c0 .569.46 1.028 1.028 1.028h4.114v-2.056H2.13V2.368h9.721l8.788 13.67v9.98H15.5v2.057h6.17c.568 0 1.027-.46 1.027-1.029v-11.31c0-.197-.056-.392-.163-.557z"/></svg></svg></svg></svg><svg width="17" height="12" xmlns="http://www.w3.org/2000/svg" xmlns:xlink="http://www.w3.org/1999/xlink" xmlns:svgjs="http://svgjs.com/svgjs" viewBox="829 238 17 12" x="829" y="238"><svg width="17" height="12" xmlns="http://www.w3.org/2000/svg" xmlns:xlink="http://www.w3.org/1999/xlink" xmlns:svgjs="http://svgjs.com/svgjs" viewBox="829 238 17 12" x="829" y="238"><svg width="17" height="12" xmlns="http://www.w3.org/2000/svg" xmlns:xlink="http://www.w3.org/1999/xlink" xmlns:svgjs="http://svgjs.com/svgjs" viewBox="0 0.156 17 11.687" fill="#333" x="829" y="238"><svg xmlns="http://www.w3.org/2000/svg" xmlns:xlink="http://www.w3.org/1999/xlink" width="17" height="12" viewBox="0.187 0.424 16.453 11.311"><path paint-order="stroke fill markers" fill-rule="evenodd" d="M2.244 9.679V2.48h8.227V.424H1.216C.647.424.187.884.187 1.452v9.255c0 .569.46 1.028 1.029 1.028H16.64V9.68H2.244z"/></svg></svg></svg></svg><svg width="42" height="36" xmlns="http://www.w3.org/2000/svg" xmlns:xlink="http://www.w3.org/1999/xlink" xmlns:svgjs="http://svgjs.com/svgjs" viewBox="786 227 42 36" x="786" y="227"><svg width="42" height="36" xmlns="http://www.w3.org/2000/svg" xmlns:xlink="http://www.w3.org/1999/xlink" xmlns:svgjs="http://svgjs.com/svgjs" viewBox="786 227 42 36" x="786" y="227"><svg width="42" height="36" xmlns="http://www.w3.org/2000/svg" xmlns:xlink="http://www.w3.org/1999/xlink" xmlns:svgjs="http://svgjs.com/svgjs" viewBox="0 0.15 42 35.699" fill="#333" x="786" y="227"><svg xmlns="http://www.w3.org/2000/svg" xmlns:xlink="http://www.w3.org/1999/xlink" width="42" height="36" viewBox="0 0.113 41.132 34.961"><path paint-order="stroke fill markers" fill-rule="evenodd" d="M40.102.113H1.028C.46.113 0 .573 0 1.141v32.905c0 .569.46 1.029 1.028 1.029h8.226v-2.057H2.056V2.17h37.018v30.848H19.537v2.057h20.565c.569 0 1.03-.46 1.03-1.029V1.141c0-.567-.461-1.028-1.03-1.028z"/></svg></svg></svg></svg><svg width="7" height="3" xmlns="http://www.w3.org/2000/svg" xmlns:xlink="http://www.w3.org/1999/xlink" xmlns:svgjs="http://svgjs.com/svgjs" viewBox="787 255 7 3" x="787" y="255"><svg width="7" height="3" xmlns="http://www.w3.org/2000/svg" xmlns:xlink="http://www.w3.org/1999/xlink" xmlns:svgjs="http://svgjs.com/svgjs" viewBox="787 255 7 3" x="787" y="255"><svg width="7" height="3" xmlns="http://www.w3.org/2000/svg" xmlns:xlink="http://www.w3.org/1999/xlink" xmlns:svgjs="http://svgjs.com/svgjs" viewBox="0 0.333 7 2.333" fill="#333" x="787" y="255"><svg xmlns="http://www.w3.org/2000/svg" xmlns:xlink="http://www.w3.org/1999/xlink" width="7" height="3" viewBox="0.028 0.905 6.17 2.057"><path paint-order="stroke fill markers" fill-rule="evenodd" d="M.028.905h6.17v2.057H.028V.905z"/></svg></svg></svg></svg><svg width="19" height="3" xmlns="http://www.w3.org/2000/svg" xmlns:xlink="http://www.w3.org/1999/xlink" xmlns:svgjs="http://svgjs.com/svgjs" viewBox="807 255 19 3" x="807" y="255"><svg width="19" height="3" xmlns="http://www.w3.org/2000/svg" xmlns:xlink="http://www.w3.org/1999/xlink" xmlns:svgjs="http://svgjs.com/svgjs" viewBox="807 255 19 3" x="807" y="255"><svg width="19" height="3" xmlns="http://www.w3.org/2000/svg" xmlns:xlink="http://www.w3.org/1999/xlink" xmlns:svgjs="http://svgjs.com/svgjs" viewBox="0 0.382 19 2.235" fill="#333" x="807" y="255"><svg xmlns="http://www.w3.org/2000/svg" xmlns:xlink="http://www.w3.org/1999/xlink" width="19" height="3" viewBox="0.593 0.905 17.481 2.057"><path paint-order="stroke fill markers" fill-rule="evenodd" d="M.593.905h17.481v2.057H.594V.905z"/></svg></svg></svg></svg><svg width="5" height="3" xmlns="http://www.w3.org/2000/svg" xmlns:xlink="http://www.w3.org/1999/xlink" xmlns:svgjs="http://svgjs.com/svgjs" viewBox="842 255 5 3" x="842" y="255"><svg width="5" height="3" xmlns="http://www.w3.org/2000/svg" xmlns:xlink="http://www.w3.org/1999/xlink" xmlns:svgjs="http://svgjs.com/svgjs" viewBox="842 255 5 3" x="842" y="255"><svg width="5" height="3" xmlns="http://www.w3.org/2000/svg" xmlns:xlink="http://www.w3.org/1999/xlink" xmlns:svgjs="http://svgjs.com/svgjs" viewBox="0 0.25 5 2.5" fill="#333" x="842" y="255"><svg xmlns="http://www.w3.org/2000/svg" xmlns:xlink="http://www.w3.org/1999/xlink" width="5" height="3" viewBox="0.555 0.905 4.113 2.057"><path paint-order="stroke fill markers" fill-rule="evenodd" d="M.555.905h4.113v2.057H.555V.905z"/></svg></svg></svg></svg><svg width="37" height="3" xmlns="http://www.w3.org/2000/svg" xmlns:xlink="http://www.w3.org/1999/xlink" xmlns:svgjs="http://svgjs.com/svgjs" viewBox="790 231 37 3" x="790" y="231"><svg width="37" height="3" xmlns="http://www.w3.org/2000/svg" xmlns:xlink="http://www.w3.org/1999/xlink" xmlns:svgjs="http://svgjs.com/svgjs" viewBox="790 231 37 3" x="790" y="231"><svg width="37" height="3" xmlns="http://www.w3.org/2000/svg" xmlns:xlink="http://www.w3.org/1999/xlink" xmlns:svgjs="http://svgjs.com/svgjs" viewBox="0 0.443 37 2.114" fill="#333" x="790" y="231"><svg xmlns="http://www.w3.org/2000/svg" xmlns:xlink="http://www.w3.org/1999/xlink" width="37" height="3" viewBox="0.113 0.226 35.989 2.057"><path paint-order="stroke fill markers" fill-rule="evenodd" d="M.113.226h35.99v2.057H.112V.226z"/></svg></svg></svg></svg><svg width="3" height="3" xmlns="http://www.w3.org/2000/svg" xmlns:xlink="http://www.w3.org/1999/xlink" xmlns:svgjs="http://svgjs.com/svgjs" viewBox="799 260 3 3" x="799" y="260"><svg width="3" height="3" xmlns="http://www.w3.org/2000/svg" xmlns:xlink="http://www.w3.org/1999/xlink" xmlns:svgjs="http://svgjs.com/svgjs" viewBox="799 260 3 3" x="799" y="260"><svg width="3" height="3" xmlns="http://www.w3.org/2000/svg" xmlns:xlink="http://www.w3.org/1999/xlink" xmlns:svgjs="http://svgjs.com/svgjs" viewBox="0 0 2.999 3" fill="#333" x="799" y="260"><svg xmlns="http://www.w3.org/2000/svg" xmlns:xlink="http://www.w3.org/1999/xlink" width="3" height="3" viewBox="0.367 0.018 2.056 2.057"><path paint-order="stroke fill markers" fill-rule="evenodd" d="M.367.018h2.056v2.057H.367V.018z"/></svg></svg></svg></svg><svg width="3" height="3" xmlns="http://www.w3.org/2000/svg" xmlns:xlink="http://www.w3.org/1999/xlink" xmlns:svgjs="http://svgjs.com/svgjs" viewBox="834 260 3 3" x="834" y="260"><svg width="3" height="3" xmlns="http://www.w3.org/2000/svg" xmlns:xlink="http://www.w3.org/1999/xlink" xmlns:svgjs="http://svgjs.com/svgjs" viewBox="834 260 3 3" x="834" y="260"><svg width="3" height="3" xmlns="http://www.w3.org/2000/svg" xmlns:xlink="http://www.w3.org/1999/xlink" xmlns:svgjs="http://svgjs.com/svgjs" viewBox="0 0 2.999 3" fill="#333" x="834" y="260"><svg xmlns="http://www.w3.org/2000/svg" xmlns:xlink="http://www.w3.org/1999/xlink" width="3" height="3" viewBox="0.329 0.018 2.056 2.057"><path paint-order="stroke fill markers" fill-rule="evenodd" d="M.329.018h2.056v2.057H.33V.018z"/></svg></svg></svg></svg><svg width="15" height="3" xmlns="http://www.w3.org/2000/svg" xmlns:xlink="http://www.w3.org/1999/xlink" xmlns:svgjs="http://svgjs.com/svgjs" viewBox="790 223 15 3" x="790" y="223"><svg width="15" height="3" xmlns="http://www.w3.org/2000/svg" xmlns:xlink="http://www.w3.org/1999/xlink" xmlns:svgjs="http://svgjs.com/svgjs" viewBox="790 223 15 3" x="790" y="223"><svg width="15" height="3" xmlns="http://www.w3.org/2000/svg" xmlns:xlink="http://www.w3.org/1999/xlink" xmlns:svgjs="http://svgjs.com/svgjs" viewBox="0 0.428 15 2.143" fill="#333" x="790" y="223"><svg xmlns="http://www.w3.org/2000/svg" xmlns:xlink="http://www.w3.org/1999/xlink" width="15" height="3" viewBox="0.113 0 14.396 2.057"><path paint-order="stroke fill markers" fill-rule="evenodd" d="M.113 0H14.51v2.057H.113V0z"/></svg></svg></svg></svg><svg width="3" height="3" xmlns="http://www.w3.org/2000/svg" xmlns:xlink="http://www.w3.org/1999/xlink" xmlns:svgjs="http://svgjs.com/svgjs" viewBox="786 223 3 3" x="786" y="223"><svg width="3" height="3" xmlns="http://www.w3.org/2000/svg" xmlns:xlink="http://www.w3.org/1999/xlink" xmlns:svgjs="http://svgjs.com/svgjs" viewBox="786 223 3 3" x="786" y="223"><svg width="3" height="3" xmlns="http://www.w3.org/2000/svg" xmlns:xlink="http://www.w3.org/1999/xlink" xmlns:svgjs="http://svgjs.com/svgjs" viewBox="0 0 2.999 3" fill="#333" x="786" y="223"><svg xmlns="http://www.w3.org/2000/svg" xmlns:xlink="http://www.w3.org/1999/xlink" width="3" height="3" viewBox="0 0 2.056 2.057"><path paint-order="stroke fill markers" fill-rule="evenodd" d="M0 0h2.056v2.057H0V0z"/></svg></svg></svg></svg></svg><svg width="47" height="46" xmlns="http://www.w3.org/2000/svg" xmlns:xlink="http://www.w3.org/1999/xlink" xmlns:svgjs="http://svgjs.com/svgjs" viewBox="0.5 0 45.999 46" fill="#8f9fb4" opacity=".251" x="793" y="223"><svg xmlns="http://www.w3.org/2000/svg" width="47" height="46" viewBox="0.667 0 45.999 46"><path paint-order="stroke fill markers" fill-rule="evenodd" d="M23.666 46c-12.718 0-23-10.281-23-23 0-12.72 10.282-23 23-23 12.72 0 23 10.28 23 23 0 12.719-10.28 23-23 23z"/></svg></svg></svg>